<svg width="61" height="29" viewBox="0 0 61 29" fill="none" xmlns="http://www.w3.org/2000/svg">
<path d="M2.67186 8.40235C2.34376 8.30865 2.00385 8.16795 1.65235 7.98045C1.32425 7.76955 1.01955 7.53515 0.738254 7.27735C0.480454 6.99605 0.281259 6.69145 0.140659 6.36325C-4.12762e-05 6.03515 -0.0351405 5.68365 0.0351595 5.30865C0.175759 4.53515 0.621059 3.80865 1.37106 3.12895C2.12106 2.44925 3.12886 1.91015 4.39456 1.51175V1.40625C4.41796 1.14845 4.58205 0.89065 4.88665 0.63285C5.21485 0.35155 5.61326 0.16405 6.08206 0.07035C6.52736 -0.02345 6.84375 -0.02345 7.03125 0.07035C7.24215 0.16405 7.34766 0.29295 7.34766 0.45705C7.34766 0.50395 7.33596 0.56255 7.31246 0.63285C7.31246 0.67965 7.31246 0.726552 7.31246 0.773452V0.949252C8.46096 0.855452 9.73826 0.890653 11.1446 1.05465C12.8321 1.26565 14.2032 1.66405 15.2578 2.25005C16.3125 2.83595 17.1094 3.51565 17.6485 4.28905C18.1875 5.03905 18.5157 5.82425 18.6328 6.64455C18.7735 7.46485 18.7735 8.21485 18.6328 8.89455C18.4922 9.69145 18.2344 10.418 17.8594 11.0743C17.4844 11.7071 17.0391 12.2813 16.5235 12.7969C16.0078 13.2891 15.4336 13.7226 14.8008 14.0976C14.168 14.4726 13.5 14.7891 12.7969 15.0469C13.5469 15.211 14.1797 15.4805 14.6953 15.8555C15.2344 16.2071 15.668 16.6289 15.9961 17.121C16.3243 17.6132 16.5586 18.1641 16.6993 18.7735C16.8399 19.3829 16.8867 20.0039 16.8399 20.6367C16.793 21.621 16.5352 22.5469 16.0664 23.4141C15.6211 24.2579 15.0117 24.9961 14.2383 25.629C13.4649 26.2618 12.5391 26.754 11.461 27.1055C10.4063 27.4571 9.23435 27.6094 7.94525 27.5626H7.52346C7.17186 27.8672 6.78515 28.0899 6.36325 28.2305C5.96485 28.3946 5.57816 28.5118 5.20316 28.5821C4.78126 28.6758 4.35936 28.711 3.93746 28.6876C3.93746 28.5235 3.93746 28.3476 3.93746 28.1601C3.96096 27.996 3.97266 27.8321 3.97266 27.668C3.97266 27.4805 3.98435 27.293 4.00775 27.1055C3.72655 27.0587 3.45706 26.9883 3.19926 26.8946C2.96486 26.8243 2.71876 26.7422 2.46096 26.6485C2.22656 26.5782 2.01566 26.4961 1.82816 26.4024C1.73436 26.2618 1.66406 26.086 1.61716 25.8751C1.57026 25.6876 1.53515 25.4765 1.51165 25.2421C1.51165 25.0312 1.55855 24.7852 1.65235 24.504C2.37885 24.7852 3.21096 24.996 4.14846 25.1367C4.19526 23.9414 4.23046 22.5235 4.25386 20.8829C4.30076 19.2422 4.32426 17.5196 4.32426 15.7149C4.32426 13.6758 4.32426 11.6719 4.32426 9.70315C4.34766 7.73435 4.35936 6.04685 4.35936 4.64065C3.67966 4.99215 3.15235 5.47265 2.77735 6.08205C2.40235 6.69145 2.36716 7.46485 2.67186 8.40235ZM13.5 20.8126C13.5938 19.7813 13.4414 18.961 13.043 18.3516C12.6446 17.7188 12.1172 17.2501 11.461 16.9454C10.8282 16.6172 10.125 16.4179 9.35156 16.3476C8.60156 16.2773 7.92186 16.2657 7.31246 16.3126C7.35936 18.2579 7.39456 20.0273 7.41796 21.621C7.44136 23.1914 7.46485 24.4805 7.48825 25.4883C8.21485 25.5118 8.91796 25.4296 9.59766 25.2421C10.2774 25.0546 10.8867 24.7618 11.4258 24.3633C11.9883 23.9649 12.4571 23.4726 12.8321 22.8867C13.2071 22.2773 13.4297 21.586 13.5 20.8126ZM7.24216 3.83205C7.19526 5.02735 7.17186 6.44535 7.17186 8.08595C7.17186 9.72655 7.19526 11.5546 7.24216 13.5703C7.24216 13.7578 7.24216 13.9453 7.24216 14.1328C7.24216 14.2968 7.25385 14.4726 7.27735 14.6601C8.12105 14.5898 8.99996 14.3907 9.91406 14.0626C10.8282 13.711 11.6602 13.254 12.4102 12.6915C13.1836 12.129 13.8164 11.4727 14.3086 10.7227C14.8008 9.94925 15.0469 9.10545 15.0469 8.19145C15.0469 7.48825 14.8594 6.86715 14.4844 6.32815C14.1094 5.76565 13.6055 5.29685 12.9727 4.92185C12.3633 4.54685 11.6485 4.26565 10.8282 4.07815C10.0313 3.89065 9.19926 3.79685 8.33206 3.79685C8.14456 3.79685 7.95706 3.79685 7.76956 3.79685C7.60546 3.79685 7.42966 3.80865 7.24216 3.83205ZM29.2149 18.668C29.168 19.5821 29.0039 20.4257 28.7227 21.1992C28.4649 21.9726 28.1016 22.6524 27.6328 23.2383C27.1641 23.8008 26.6016 24.246 25.9453 24.5742C25.3125 24.9023 24.6094 25.0782 23.836 25.1016C23.1563 25.1251 22.5117 24.961 21.9024 24.6094C21.3164 24.2579 20.8008 23.7657 20.3555 23.1329C19.9102 22.5001 19.5703 21.7501 19.336 20.8829C19.125 19.9922 19.0664 19.0313 19.1602 18.0001C19.2305 16.8047 19.4532 15.7852 19.8282 14.9415C20.2032 14.0743 20.6016 13.3594 21.0235 12.7969C21.4453 12.2344 21.8321 11.8243 22.1836 11.5665C22.5586 11.2852 22.793 11.1211 22.8867 11.0743C23.0508 11.004 23.2032 10.9922 23.3438 11.0391C23.4844 11.0626 23.6367 11.0976 23.8008 11.1445C23.8477 11.1679 23.8946 11.2265 23.9414 11.3203C24.0352 11.4843 24.0938 11.7891 24.1172 12.2344C24.2344 11.9766 24.3867 11.7657 24.5743 11.6016C24.7617 11.4376 24.9493 11.3203 25.1367 11.25C25.3711 11.1562 25.6055 11.0977 25.8399 11.0743C26.0039 11.0508 26.2852 11.1797 26.6836 11.461C27.1055 11.7422 27.5039 12.1876 27.8789 12.7969C28.2774 13.4063 28.6172 14.2032 28.8985 15.1876C29.1797 16.1485 29.2852 17.3087 29.2149 18.668ZM26.8243 18.246C26.8477 17.6836 26.8243 17.1211 26.7539 16.5587C26.7071 15.9727 26.6133 15.4454 26.4727 14.9766C26.3555 14.4844 26.2032 14.0977 26.0157 13.8165C25.8282 13.5118 25.6407 13.3594 25.4532 13.3594C25.2422 13.4063 25.0078 13.5117 24.75 13.6757C24.5391 13.8164 24.3047 14.039 24.0469 14.3437C23.7891 14.6484 23.543 15.0821 23.3086 15.6446C23.2852 15.5743 23.2617 15.4453 23.2383 15.2578C23.2149 15.0937 23.1914 14.8829 23.168 14.6251C23.168 14.3438 23.1914 13.9688 23.2383 13.5001C22.9102 13.8985 22.6524 14.3671 22.4649 14.9062C22.3008 15.4453 22.1719 15.9609 22.0782 16.4531C21.9844 17.039 21.9141 17.6251 21.8672 18.211C21.8438 18.8438 21.8672 19.4648 21.9375 20.0742C22.0313 20.6836 22.1719 21.2227 22.3594 21.6915C22.5703 22.1602 22.8164 22.5352 23.0977 22.8165C23.3789 23.0977 23.7188 23.2265 24.1172 23.2031C24.5157 23.1796 24.8672 23.0157 25.1719 22.711C25.4766 22.4063 25.7461 22.0196 25.9805 21.5508C26.2149 21.0821 26.4024 20.5547 26.543 19.9688C26.6836 19.3828 26.7774 18.8086 26.8243 18.246ZM40.8165 18.668C40.7695 19.5821 40.6055 20.4257 40.3245 21.1992C40.0665 21.9726 39.7035 22.6524 39.2345 23.2383C38.7655 23.8008 38.2035 24.246 37.5465 24.5742C36.9145 24.9023 36.2105 25.0782 35.4375 25.1016C34.7575 25.1251 34.1135 24.961 33.5035 24.6094C32.9185 24.2579 32.4025 23.7657 31.9575 23.1329C31.5115 22.5001 31.1715 21.7501 30.9375 20.8829C30.7265 19.9922 30.6685 19.0313 30.7615 18.0001C30.8325 16.8047 31.0545 15.7852 31.4295 14.9415C31.8045 14.0743 32.2035 13.3594 32.6255 12.7969C33.0465 12.2344 33.4335 11.8243 33.7855 11.5665C34.1605 11.2852 34.3945 11.1211 34.4885 11.0743C34.6525 11.004 34.8045 10.9922 34.9455 11.0391C35.0855 11.0626 35.2385 11.0976 35.4025 11.1445C35.4495 11.1679 35.4965 11.2265 35.5425 11.3203C35.6365 11.4843 35.6955 11.7891 35.7185 12.2344C35.8355 11.9766 35.9885 11.7657 36.1755 11.6016C36.3635 11.4376 36.5505 11.3203 36.7385 11.25C36.9725 11.1562 37.2075 11.0977 37.4415 11.0743C37.6055 11.0508 37.8865 11.1797 38.2855 11.461C38.7075 11.7422 39.1055 12.1876 39.4805 12.7969C39.8785 13.4063 40.2185 14.2032 40.5005 15.1876C40.7815 16.1485 40.8865 17.3087 40.8165 18.668ZM38.4255 18.246C38.4495 17.6836 38.4255 17.1211 38.3555 16.5587C38.3085 15.9727 38.2145 15.4454 38.0745 14.9766C37.9575 14.4844 37.8045 14.0977 37.6175 13.8165C37.4295 13.5118 37.2425 13.3594 37.0545 13.3594C36.8435 13.4063 36.6095 13.5117 36.3515 13.6757C36.1405 13.8164 35.9065 14.039 35.6485 14.3437C35.3905 14.6484 35.1445 15.0821 34.9105 15.6446C34.8865 15.5743 34.8635 15.4453 34.8395 15.2578C34.8165 15.0937 34.7925 14.8829 34.7695 14.6251C34.7695 14.3438 34.7925 13.9688 34.8395 13.5001C34.5115 13.8985 34.2535 14.3671 34.0665 14.9062C33.9025 15.4453 33.7735 15.9609 33.6795 16.4531C33.5855 17.039 33.5155 17.6251 33.4685 18.211C33.4455 18.8438 33.4685 19.4648 33.5395 20.0742C33.6325 20.6836 33.7735 21.2227 33.9605 21.6915C34.1715 22.1602 34.4185 22.5352 34.6995 22.8165C34.9805 23.0977 35.3205 23.2265 35.7185 23.2031C36.1175 23.1796 36.4685 23.0157 36.7735 22.711C37.0785 22.4063 37.3475 22.0196 37.5825 21.5508C37.8165 21.0821 38.0035 20.5547 38.1445 19.9688C38.2855 19.3828 38.3785 18.8086 38.4255 18.246ZM49.8165 16.3126C50.3085 16.5235 50.7775 16.8633 51.2225 17.3321C51.6685 17.7774 51.9495 18.457 52.0665 19.371C52.1605 20.1679 52.2895 20.8828 52.4535 21.5156C52.6175 22.1484 52.8515 22.7227 53.1565 23.2383C53.4605 23.7305 53.8595 24.1757 54.3515 24.5742C54.8675 24.9492 55.5235 25.2774 56.3205 25.5587C56.1095 25.7461 55.8515 25.8984 55.5465 26.0156C55.2655 26.1328 54.9965 26.2148 54.7385 26.2617C54.4335 26.3554 54.1175 26.4024 53.7895 26.4024C53.0155 26.4727 52.3825 26.3672 51.8905 26.086C51.3985 25.8282 51.0115 25.4415 50.7305 24.9258C50.4495 24.4102 50.2385 23.8126 50.0975 23.1329C49.9575 22.4532 49.8515 21.7501 49.7815 21.0235C49.7575 20.7188 49.7225 20.4023 49.6755 20.0742C49.6285 19.746 49.5465 19.4297 49.4295 19.1251C49.3125 18.8204 49.1485 18.5391 48.9375 18.2812C48.7505 18.0234 48.5035 17.8243 48.1995 17.6837C47.6835 18.0821 47.2035 18.4337 46.7575 18.7383C46.3355 19.0196 45.9605 19.254 45.6325 19.4415C45.6565 20.7071 45.7145 21.7501 45.8085 22.5704C45.9255 23.3907 46.0785 23.9414 46.2655 24.2226C46.1015 24.3398 45.9375 24.4454 45.7735 24.5391C45.6095 24.6094 45.4685 24.668 45.3515 24.7149C45.1875 24.7852 45.0355 24.8321 44.8945 24.8555C44.4255 24.9961 44.0035 24.9726 43.6285 24.7851C43.2775 24.621 43.0895 24.1641 43.0665 23.4141L42.8555 2.88285C42.8555 2.69535 43.0315 2.50785 43.3825 2.32035C43.7575 2.10935 44.1685 1.94535 44.6135 1.82815C45.0585 1.71095 45.4575 1.65235 45.8085 1.65235C46.1835 1.65235 46.3595 1.75785 46.3355 1.96875C46.2655 3.58595 46.1955 5.10935 46.1255 6.53905C46.0545 7.96875 45.9965 9.23435 45.9495 10.336C45.8785 11.6251 45.8205 12.7969 45.7735 13.8516C45.7265 14.4844 45.6915 15.0937 45.6685 15.6796C45.6685 16.2656 45.6565 16.8281 45.6325 17.3671C46.0785 17.0156 46.5465 16.629 47.0395 16.2071C47.5315 15.7852 48.0005 15.3164 48.4455 14.8007C48.8905 14.2851 49.2655 13.7344 49.5705 13.1485C49.8755 12.5391 50.0505 11.8946 50.0975 11.2149C50.3555 11.0274 50.6135 10.875 50.8715 10.7578C51.1525 10.6171 51.3985 10.5118 51.6095 10.4415C51.8675 10.3477 52.1015 10.3007 52.3125 10.3007C52.8515 10.2773 53.1685 10.3946 53.2615 10.6524C53.3325 10.8399 53.3205 11.1211 53.2265 11.4961C53.1565 11.8477 52.9805 12.2813 52.6995 12.7969C52.4415 13.2891 52.0785 13.8398 51.6095 14.4492C51.1405 15.0351 50.5425 15.6563 49.8165 16.3126ZM55.6525 12.2696C55.6525 12.129 55.8395 11.9766 56.2145 11.8126C56.5895 11.6485 57.0005 11.5195 57.4455 11.4257C57.9145 11.3086 58.3355 11.25 58.7105 11.25C59.1095 11.2265 59.3085 11.3087 59.3085 11.4961C59.3085 11.8477 59.2855 12.3515 59.2385 13.0078C59.1915 13.6406 59.1325 14.3204 59.0625 15.0469C58.9925 15.7501 58.9215 16.4649 58.8515 17.1915C58.7815 17.8946 58.7345 18.4922 58.7105 18.9844C58.6645 19.5001 58.6175 20.0626 58.5705 20.6719C58.5235 21.1876 58.4885 21.7618 58.4645 22.3946C58.4415 23.0274 58.4415 23.6718 58.4645 24.3281C58.4645 24.4453 58.3475 24.5625 58.1135 24.6796C57.8785 24.7968 57.6215 24.879 57.3395 24.9258C57.0585 24.9961 56.7895 25.0312 56.5315 25.0312C56.2735 25.0312 56.1325 24.9843 56.1095 24.8906C56.0625 24.7968 56.0155 24.6329 55.9685 24.3985C55.9215 24.1641 55.8755 23.836 55.8285 23.4141C55.7815 22.9688 55.7465 22.4063 55.7225 21.7266C55.6995 21.0235 55.7105 20.1797 55.7575 19.1954C55.8515 17.2501 55.8635 15.75 55.7925 14.6953C55.7225 13.6171 55.6755 12.8087 55.6525 12.2696ZM58.1135 5.27345C58.5825 5.27345 59.0275 5.41405 59.4495 5.69535C59.8715 5.97655 60.0825 6.35155 60.0825 6.82035C60.0825 7.17185 59.9885 7.51175 59.8005 7.83985C59.6365 8.16795 59.4255 8.46095 59.1685 8.71875C58.9105 8.97655 58.6175 9.18755 58.2895 9.35155C57.9605 9.49215 57.6565 9.56255 57.3755 9.56255C57.0005 9.56255 56.6955 9.50395 56.4605 9.38675C56.2265 9.24605 56.0395 9.09375 55.8985 8.92965C55.7815 8.74215 55.6995 8.54295 55.6525 8.33205C55.6055 8.12105 55.5825 7.92185 55.5825 7.73435C55.5825 7.50005 55.6175 7.24215 55.6875 6.96095C55.7575 6.65625 55.8865 6.38675 56.0745 6.15235C56.2615 5.89455 56.5195 5.68365 56.8475 5.51955C57.1755 5.35545 57.5975 5.27345 58.1135 5.27345ZM57.2345 8.54295C57.3755 8.54295 57.5275 8.49605 57.6915 8.40235C57.8785 8.28515 58.0425 8.15625 58.1835 8.01565C58.3475 7.87505 58.4765 7.72265 58.5705 7.55865C58.6875 7.39455 58.7465 7.25395 58.7465 7.13675C58.7465 6.94925 58.6525 6.85545 58.4645 6.85545C58.3475 6.85545 58.1955 6.90235 58.0075 6.99605C57.8435 7.08985 57.6795 7.20705 57.5155 7.34765C57.3515 7.46485 57.2105 7.60545 57.0935 7.76955C57.0005 7.91015 56.9535 8.05075 56.9535 8.19145C56.9535 8.42575 57.0465 8.54295 57.2345 8.54295Z" fill="#0065FC"/>
</svg>
